<svg width="278" height="76" viewBox="0 0 278 76" fill="none" xmlns="http://www.w3.org/2000/svg">
<rect width="278" height="76" fill="#0D0D0D" style="fill:#0D0D0D;fill:color(display-p3 0.0510 0.0510 0.0510);fill-opacity:1;"/>
<path d="M37 34.5C37 41.4036 31.4036 47 24.5 47C17.5964 47 12 41.4036 12 34.5C12 27.5964 17.5964 22 24.5 22C31.4036 22 37 27.5964 37 34.5Z" fill="white" fill-opacity="0.1" style="fill:white;fill-opacity:0.1;"/>
<rect x="45" y="22" width="145" height="12" rx="2" fill="white" fill-opacity="0.1" style="fill:white;fill-opacity:0.1;"/>
<rect x="45" y="38" width="145" height="8" rx="2" fill="white" fill-opacity="0.1" style="fill:white;fill-opacity:0.1;"/>
<rect x="0.5" y="10.5" width="266" height="48" rx="3.5" stroke="white" stroke-opacity="0.1" style="stroke:white;stroke-opacity:0.1;"/>
<rect x="250" y="2" width="22" height="22" rx="4" fill="#0D0D0D" style="fill:#0D0D0D;fill:color(display-p3 0.0510 0.0510 0.0510);fill-opacity:1;"/>
<rect x="250.5" y="2.5" width="21" height="21" rx="3.5" stroke="white" stroke-opacity="0.1" style="stroke:white;stroke-opacity:0.1;"/>
<path d="M261.5 7L261.5 18" stroke="#252525" style="stroke:#252525;stroke:color(display-p3 0.1451 0.1451 0.1451);stroke-opacity:1;" stroke-width="2"/>
<path d="M267 12.5L256 12.5" stroke="#252525" style="stroke:#252525;stroke:color(display-p3 0.1451 0.1451 0.1451);stroke-opacity:1;" stroke-width="2"/>
</svg>
