<svg width="278" height="76" viewBox="0 0 278 76" fill="none" xmlns="http://www.w3.org/2000/svg">
<rect width="278" height="76" fill="#0D0D0D" style="fill:#0D0D0D;fill:color(display-p3 0.0510 0.0510 0.0510);fill-opacity:1;"/>
<path d="M37 34.5C37 41.4036 31.4036 47 24.5 47C17.5964 47 12 41.4036 12 34.5C12 27.5964 17.5964 22 24.5 22C31.4036 22 37 27.5964 37 34.5Z" fill="white" fill-opacity="0.1" style="fill:white;fill-opacity:0.1;"/>
<rect x="45" y="22" width="145" height="12" rx="2" fill="white" fill-opacity="0.1" style="fill:white;fill-opacity:0.1;"/>
<rect x="45" y="38" width="145" height="8" rx="2" fill="white" fill-opacity="0.1" style="fill:white;fill-opacity:0.1;"/>
<rect x="0.5" y="10.5" width="266" height="48" rx="3.5" stroke="white" stroke-opacity="0.1" style="stroke:white;stroke-opacity:0.1;"/>
<rect x="250" y="2" width="22" height="22" rx="4" fill="#0D0D0D" style="fill:#0D0D0D;fill:color(display-p3 0.0510 0.0510 0.0510);fill-opacity:1;"/>
<rect x="250.5" y="2.5" width="21" height="21" rx="3.5" stroke="white" stroke-opacity="0.1" style="stroke:white;stroke-opacity:0.1;"/>
<g clip-path="url(#clip0_29_22)">
<path d="M260.469 18C260.36 18.0005 260.254 17.9679 260.164 17.9065C260.075 17.8451 260.006 17.7578 259.967 17.6562L259.111 15.4305C259.094 15.3856 259.068 15.3449 259.033 15.3109C258.999 15.2769 258.959 15.2504 258.914 15.233L256.687 14.3764C256.586 14.3375 256.499 14.2687 256.437 14.1792C256.376 14.0897 256.343 13.9836 256.343 13.875C256.343 13.7664 256.376 13.6603 256.437 13.5708C256.499 13.4812 256.586 13.4125 256.687 13.3735L258.913 12.5176C258.958 12.5003 258.999 12.4738 259.033 12.4397C259.067 12.4057 259.093 12.365 259.111 12.3202L259.967 10.0937C260.006 9.99232 260.075 9.90509 260.165 9.84356C260.254 9.78202 260.36 9.74908 260.469 9.74908C260.577 9.74908 260.683 9.78202 260.773 9.84356C260.862 9.90509 260.931 9.99232 260.97 10.0937L261.826 12.3195C261.843 12.3644 261.87 12.4051 261.904 12.4391C261.938 12.4731 261.979 12.4996 262.024 12.517L264.236 13.3684C264.342 13.4075 264.433 13.4782 264.497 13.5709C264.561 13.6635 264.595 13.7736 264.594 13.8862C264.592 13.9929 264.558 14.0967 264.497 14.1841C264.436 14.2715 264.35 14.3385 264.25 14.3764L262.024 15.2324C261.979 15.2497 261.939 15.2762 261.905 15.3102C261.871 15.3442 261.844 15.385 261.827 15.4298L260.97 17.6562C260.932 17.7578 260.863 17.8451 260.773 17.9065C260.684 17.9679 260.577 18.0005 260.469 18Z" fill="white" fill-opacity="0.1" style="fill:white;fill-opacity:0.1;"/>
<path d="M257.891 10.7814C257.827 10.7814 257.765 10.7621 257.712 10.7261C257.66 10.69 257.619 10.6389 257.597 10.5795L257.234 9.63758C257.227 9.61698 257.214 9.59827 257.199 9.58268C257.183 9.56709 257.165 9.55498 257.144 9.54713L256.202 9.1849C256.143 9.16201 256.092 9.12166 256.055 9.06916C256.019 9.01665 256 8.95446 256 8.89078C256 8.82709 256.019 8.7649 256.055 8.7124C256.092 8.6599 256.143 8.61954 256.202 8.59666L257.144 8.23443C257.164 8.22655 257.183 8.21442 257.199 8.19883C257.214 8.18325 257.226 8.16456 257.234 8.14398L257.593 7.21049C257.614 7.15553 257.648 7.10713 257.694 7.07049C257.74 7.03385 257.795 7.01035 257.853 7.00252C257.922 6.99405 257.993 7.00908 258.053 7.04524C258.113 7.08139 258.16 7.1366 258.185 7.20211L258.547 8.14398C258.555 8.16456 258.567 8.18325 258.583 8.19883C258.598 8.21442 258.617 8.22655 258.638 8.23443L259.579 8.59666C259.639 8.61954 259.69 8.6599 259.726 8.7124C259.762 8.7649 259.781 8.82709 259.781 8.89078C259.781 8.95446 259.762 9.01665 259.726 9.06916C259.69 9.12166 259.639 9.16201 259.579 9.1849L258.638 9.54713C258.617 9.55498 258.598 9.56709 258.583 9.58268C258.567 9.59827 258.555 9.61698 258.547 9.63758L258.185 10.5795C258.162 10.6389 258.122 10.69 258.069 10.7261C258.017 10.7621 257.954 10.7814 257.891 10.7814Z" fill="white" fill-opacity="0.1" style="fill:white;fill-opacity:0.1;"/>
<path d="M264.594 12.5C264.524 12.5 264.456 12.4789 264.399 12.4396C264.342 12.4002 264.298 12.3444 264.273 12.2796L263.782 11.004C263.774 10.9816 263.76 10.9612 263.743 10.9441C263.726 10.9271 263.706 10.9139 263.683 10.9052L262.408 10.4145C262.343 10.3895 262.287 10.3455 262.248 10.2883C262.209 10.231 262.188 10.1632 262.188 10.0938C262.188 10.0243 262.209 9.95649 262.248 9.89923C262.287 9.84198 262.343 9.79796 262.408 9.77299L263.683 9.28229C263.706 9.27366 263.726 9.2604 263.743 9.24338C263.76 9.22635 263.774 9.20594 263.782 9.18346L264.269 7.91696C264.292 7.85707 264.33 7.80432 264.379 7.76434C264.429 7.72435 264.489 7.69861 264.552 7.68987C264.628 7.68066 264.705 7.69712 264.771 7.73663C264.837 7.77613 264.887 7.83643 264.915 7.90794L265.405 9.18346C265.414 9.20594 265.427 9.22635 265.444 9.24338C265.461 9.2604 265.482 9.27366 265.504 9.28229L266.78 9.77299C266.844 9.79796 266.9 9.84198 266.939 9.89923C266.979 9.95649 267 10.0243 267 10.0938C267 10.1632 266.979 10.231 266.939 10.2883C266.9 10.3455 266.844 10.3895 266.78 10.4145L265.504 10.9052C265.482 10.9139 265.461 10.9271 265.444 10.9441C265.427 10.9612 265.414 10.9816 265.405 11.004L264.915 12.2796C264.89 12.3444 264.846 12.4002 264.788 12.4396C264.731 12.4789 264.663 12.5 264.594 12.5Z" fill="white" fill-opacity="0.1" style="fill:white;fill-opacity:0.1;"/>
</g>
<defs>
<clipPath id="clip0_29_22">
<rect width="11" height="11" fill="white" style="fill:white;fill-opacity:1;" transform="translate(256 7)"/>
</clipPath>
</defs>
</svg>
